<svg xmlns="http://www.w3.org/2000/svg" xmlns:svg="http://www.w3.org/2000/svg" id="svg8" width="15mm" height="15mm" version="1.1" viewBox="0 0 15 15"><defs id="defs2"><marker id="marker1783" orient="auto" refX="0" refY="0" style="overflow:visible"><path id="path1781" d="M 8.7185878,4.0337352 L -2.2072895,0.016013256 L 8.7185884,-4.0017078 C 6.9730900,-1.6296469 6.9831476,1.6157441 8.7185878,4.0337352 z" transform="scale(0.6) rotate(180) translate(0,0)" style="fill-rule:evenodd;stroke-width:.625;stroke-linejoin:round;stroke:#fff;stroke-opacity:1;fill:#fff;fill-opacity:1"/></marker><marker id="Arrow1Mend" orient="auto" refX="0" refY="0" style="overflow:visible"><path id="path998" d="M 0.0,0.0 L 5.0,-5.0 L -12.5,0.0 L 5.0,5.0 L 0.0,0.0 z" transform="scale(0.4) rotate(180) translate(10,0)" style="fill-rule:evenodd;stroke:#fff;stroke-width:1pt;stroke-opacity:1;fill:#fff;fill-opacity:1"/></marker><marker id="Arrow2Mend" orient="auto" refX="0" refY="0" style="overflow:visible"><path id="path1016" d="M 8.7185878,4.0337352 L -2.2072895,0.016013256 L 8.7185884,-4.0017078 C 6.9730900,-1.6296469 6.9831476,1.6157441 8.7185878,4.0337352 z" transform="scale(0.6) rotate(180) translate(0,0)" style="fill-rule:evenodd;stroke-width:.625;stroke-linejoin:round;stroke:#fff;stroke-opacity:1;fill:#fff;fill-opacity:1"/></marker><marker id="Arrow2Lend" orient="auto" refX="0" refY="0" style="overflow:visible"><path id="path1010" d="M 8.7185878,4.0337352 L -2.2072895,0.016013256 L 8.7185884,-4.0017078 C 6.9730900,-1.6296469 6.9831476,1.6157441 8.7185878,4.0337352 z" transform="scale(1.1) rotate(180) translate(1,0)" style="fill-rule:evenodd;stroke-width:.625;stroke-linejoin:round;stroke:#fff;stroke-opacity:1;fill:#fff;fill-opacity:1"/></marker><marker style="overflow:visible" id="marker1541" orient="auto" refX="0" refY="0"><path style="fill-rule:evenodd;stroke-width:.625;stroke-linejoin:round;stroke:#fff;stroke-opacity:1;fill:#fff;fill-opacity:1" id="path1539" d="M 8.7185878,4.0337352 L -2.2072895,0.016013256 L 8.7185884,-4.0017078 C 6.9730900,-1.6296469 6.9831476,1.6157441 8.7185878,4.0337352 z" transform="scale(0.6) translate(0,0)"/></marker><marker id="Arrow2Mstart" orient="auto" refX="0" refY="0" style="overflow:visible"><path id="path1013" d="M 8.7185878,4.0337352 L -2.2072895,0.016013256 L 8.7185884,-4.0017078 C 6.9730900,-1.6296469 6.9831476,1.6157441 8.7185878,4.0337352 z" transform="scale(0.6) translate(0,0)" style="fill-rule:evenodd;stroke-width:.625;stroke-linejoin:round;stroke:#fff;stroke-opacity:1;fill:#fff;fill-opacity:1"/></marker><marker id="Arrow2Lstart" orient="auto" refX="0" refY="0" style="overflow:visible"><path id="path1007" d="M 8.7185878,4.0337352 L -2.2072895,0.016013256 L 8.7185884,-4.0017078 C 6.9730900,-1.6296469 6.9831476,1.6157441 8.7185878,4.0337352 z" transform="scale(1.1) translate(1,0)" style="fill-rule:evenodd;stroke-width:.625;stroke-linejoin:round;stroke:#fff;stroke-opacity:1;fill:#fff;fill-opacity:1"/></marker><marker id="Arrow1Lstart" orient="auto" refX="0" refY="0" style="overflow:visible"><path id="path989" d="M 0.0,0.0 L 5.0,-5.0 L -12.5,0.0 L 5.0,5.0 L 0.0,0.0 z" transform="scale(0.8) translate(12.5,0)" style="fill-rule:evenodd;stroke:#fff;stroke-width:1pt;stroke-opacity:1;fill:#fff;fill-opacity:1"/></marker><filter style="color-interpolation-filters:sRGB" id="filter4105"><feColorMatrix id="feColorMatrix4103" result="fbSourceGraphic" values="1 0 0 0 0 0 1 0 0 0 0 0 1 0 0 -0.21 -0.72 -0.07 2 0"/><feColorMatrix id="feColorMatrix4111" in="fbSourceGraphic" result="fbSourceGraphicAlpha" values="0 0 0 -1 0 0 0 0 -1 0 0 0 0 -1 0 0 0 0 1 0"/><feColorMatrix id="feColorMatrix4113" in="fbSourceGraphic" result="color2" values="-1 0 0 0 1 0 -1 0 0 1 0 0 -1 0 1 -0.21 -0.72 -0.07 2 0"/></filter><filter style="color-interpolation-filters:sRGB" id="filter4284"><feColorMatrix id="feColorMatrix4282" result="color2" values="-1 0 0 0 1 0 -1 0 0 1 0 0 -1 0 1 -0.21 -0.72 -0.07 2 0"/></filter><filter style="color-interpolation-filters:sRGB" id="filter4288"><feColorMatrix id="feColorMatrix4286" result="color2" values="-1 0 0 0 1 0 -1 0 0 1 0 0 -1 0 1 -0.21 -0.72 -0.07 2 0"/></filter><filter style="color-interpolation-filters:sRGB" id="filter4292"><feColorMatrix id="feColorMatrix4290" result="color2" values="-1 0 0 0 1 0 -1 0 0 1 0 0 -1 0 1 -0.21 -0.72 -0.07 2 0"/></filter><filter style="color-interpolation-filters:sRGB" id="filter4292-4"><feColorMatrix id="feColorMatrix4290-4" result="color2" values="-1 0 0 0 1 0 -1 0 0 1 0 0 -1 0 1 -0.21 -0.72 -0.07 2 0"/></filter><filter style="color-interpolation-filters:sRGB" id="filter4292-3"><feColorMatrix id="feColorMatrix4290-1" result="color2" values="-1 0 0 0 1 0 -1 0 0 1 0 0 -1 0 1 -0.21 -0.72 -0.07 2 0"/></filter><filter style="color-interpolation-filters:sRGB" id="filter8078"><feColorMatrix id="feColorMatrix8076" values="1 0 0 0 0 0 1 0 0 0 0 0 1 0 0 0 0 0 1000 -500"/></filter><marker id="Arrow2Mstart-7" orient="auto" refX="0" refY="0" style="overflow:visible"><path id="path1013-5" d="M 8.7185878,4.0337352 -2.2072895,0.01601326 8.7185884,-4.0017078 c -1.7454984,2.3720609 -1.7354408,5.6174519 -6e-7,8.035443 z" transform="scale(0.6)" style="fill:#fff;fill-opacity:1;fill-rule:evenodd;stroke:#fff;stroke-width:.625;stroke-linejoin:round;stroke-opacity:1"/></marker><marker id="Arrow2Mstart-6" orient="auto" refX="0" refY="0" style="overflow:visible"><path id="path1013-2" d="M 8.7185878,4.0337352 -2.2072895,0.01601326 8.7185884,-4.0017078 c -1.7454984,2.3720609 -1.7354408,5.6174519 -6e-7,8.035443 z" transform="scale(0.6)" style="fill:#fff;fill-opacity:1;fill-rule:evenodd;stroke:#fff;stroke-width:.625;stroke-linejoin:round;stroke-opacity:1"/></marker></defs><metadata id="metadata5"/><g id="layer1" transform="translate(-19,-263)"><g id="g3690"><g id="layer1-1" transform="translate(14.320938,5.7302989)"><path id="path815" d="m 12.197751,257.46553 a 7.3041719,7.3041724 0 0 0 -7.3041774,7.30417 7.3041719,7.3041724 0 0 0 7.3041774,7.30418 7.3041719,7.3041724 0 0 0 7.304178,-7.30418 7.3041719,7.3041724 0 0 0 -7.304178,-7.30417 z" style="opacity:1;fill:none;fill-opacity:1;stroke:#fff;stroke-width:.39164442;stroke-linecap:round;stroke-linejoin:round;stroke-miterlimit:4;stroke-dasharray:none;stroke-dashoffset:0;stroke-opacity:1;paint-order:stroke fill markers"/><path style="fill:none;stroke:#fff9f9;stroke-width:.40000001;stroke-linecap:butt;stroke-linejoin:miter;stroke-miterlimit:4;stroke-dasharray:none;stroke-dashoffset:0;stroke-opacity:1" id="path840" d="m 17.197751,257.2697 v 2.25"/><path id="path846" d="m 4.6977514,269.7697 h 2.25" style="fill:none;stroke:#fff;stroke-width:.40000001;stroke-linecap:butt;stroke-linejoin:miter;stroke-miterlimit:4;stroke-dasharray:none;stroke-dashoffset:0;stroke-opacity:1"/></g><g id="g3654" transform="translate(0.01817975,-0.28409219)"><path style="fill:none;fill-opacity:1;fill-rule:evenodd;stroke:#fff;stroke-width:.26499999;stroke-linecap:butt;stroke-linejoin:miter;stroke-miterlimit:4;stroke-dasharray:1.05999995,1.05999995;stroke-dashoffset:0;stroke-opacity:1;marker-start:url(#Arrow2Mstart)" id="path949" d="m 26.498727,266.26589 c 0,5.05543 0,5.05543 0,5.05543"/><path style="fill:none;fill-opacity:1;fill-rule:evenodd;stroke:#fff;stroke-width:.26499999;stroke-linecap:butt;stroke-linejoin:miter;stroke-miterlimit:4;stroke-dasharray:1.05999996,1.05999996;stroke-dashoffset:0;stroke-opacity:1;marker-start:url(#Arrow2Mstart-7)" id="path949-35" d="m 22.120596,273.84904 c 4.378131,-2.52772 4.378131,-2.52772 4.378131,-2.52772"/><path style="fill:none;fill-opacity:1;fill-rule:evenodd;stroke:#fff;stroke-width:.26499999;stroke-linecap:butt;stroke-linejoin:miter;stroke-miterlimit:4;stroke-dasharray:1.05999996,1.05999996;stroke-dashoffset:0;stroke-opacity:1;marker-start:url(#Arrow2Mstart-6)" id="path949-9" d="m 30.876858,273.84904 c -4.378131,-2.52772 -4.378131,-2.52772 -4.378131,-2.52772"/></g><text id="text3678" x="28.638" y="267.936" xml:space="preserve" style="font-style:normal;font-weight:400;font-size:3.88055563px;line-height:125%;font-family:sans-serif;letter-spacing:0;word-spacing:0;fill:#fff;fill-opacity:1;stroke:none;stroke-width:.26458332px;stroke-linecap:butt;stroke-linejoin:miter;stroke-opacity:1"><tspan style="fill:#fff;fill-opacity:1;stroke-width:.26458332px" id="tspan3676" x="28.638" y="267.936">A</tspan></text></g></g></svg>