<svg xmlns="http://www.w3.org/2000/svg" xmlns:svg="http://www.w3.org/2000/svg" id="svg8" width="46.027" height="46.027" version="1.1" viewBox="0 0 12.178 12.178"><metadata id="metadata5"/><g id="layer1" transform="translate(-4.713675,-260.07578)"><path id="path2" d="m 15.108246,261.8592 c -1.150042,-1.15008 -2.679134,-1.78342 -4.305571,-1.78342 -1.6264372,0 -3.1555271,0.63334 -4.3055704,1.78342 -1.1500704,1.15007 -1.7834296,2.67914 -1.7834296,4.30558 0,1.62644 0.6333592,3.1555 1.7834296,4.30558 1.1500433,1.15008 2.6791332,1.78342 4.3055704,1.78342 1.626437,0 3.155529,-0.63334 4.305571,-1.78342 1.150069,-1.15008 1.783429,-2.67914 1.783429,-4.30558 0,-1.62644 -0.63336,-3.15551 -1.783429,-4.30558 z m -4.305571,10.00593 c -3.1431934,0 -5.7003398,-2.55715 -5.7003398,-5.70035 0,-3.14321 2.5571464,-5.70035 5.7003398,-5.70035 3.143194,0 5.70034,2.55714 5.70034,5.70035 0,3.1432 -2.557146,5.70035 -5.70034,5.70035 z" style="fill:#d40000;fill-opacity:1;stroke:none;stroke-width:.02591066;stroke-opacity:1"/><path id="path4" d="m 10.802675,260.85309 c -2.9288865,0 -5.3116811,2.38281 -5.3116811,5.31169 0,2.92888 2.3827946,5.31169 5.3116811,5.31169 2.928887,0 5.311682,-2.38281 5.311682,-5.31169 0,-2.92888 -2.382795,-5.31169 -5.311682,-5.31169 z m 0,10.23471 c -2.7145531,0 -4.9230207,-2.20845 -4.9230207,-4.92302 0,-2.71458 2.2084676,-4.92303 4.9230207,-4.92303 2.714553,0 4.923022,2.20845 4.923022,4.92303 0,2.71457 -2.208469,4.92302 -4.923022,4.92302 z" style="fill:#d40000;fill-opacity:1;stroke:none;stroke-width:.02591066;stroke-opacity:1"/><path id="path6" d="m 14.299783,264.16546 c -0.0024,-0.006 -0.005,-0.01 -0.0076,-0.0151 -0.0036,-0.006 -0.0072,-0.0115 -0.01132,-0.0175 -0.350027,-0.59679 -0.849146,-1.09593 -1.445944,-1.44595 -0.0056,-0.004 -0.01132,-0.007 -0.01744,-0.0115 -0.005,-0.003 -0.01003,-0.006 -0.01523,-0.007 -0.589543,-0.33833 -1.272237,-0.53201 -1.999342,-0.53201 -0.727129,0 -1.4098495,0.19368 -1.9993933,0.53207 -0.00521,0.003 -0.010178,0.004 -0.015165,0.007 -0.0061,0.003 -0.011895,0.006 -0.017443,0.0115 -0.5968006,0.35001 -1.0959167,0.84915 -1.4459434,1.44595 -0.00401,0.006 -0.00789,0.0115 -0.011319,0.0175 -0.00287,0.004 -0.00544,0.01 -0.00775,0.0151 -0.3383406,0.58952 -0.5319966,1.27223 -0.5319966,1.99932 0,0.70768 0.1869451,1.40425 0.5408323,2.01488 0.010029,0.017 0.1027822,0.16406 0.2891371,0.0567 l 0.5362594,-0.30959 c 0.09294,-0.0537 0.1247882,-0.17253 0.071124,-0.26548 -0.053657,-0.093 -0.1725134,-0.12479 -0.2654545,-0.0713 0,0 -0.2231683,0.12879 -0.3877785,0.2239 -0.2299307,-0.45118 -0.3628527,-0.94758 -0.3900069,-1.45479 h 0.4479811 c 0.1073241,0 0.194329,-0.087 0.194329,-0.19433 0,-0.10731 -0.087008,-0.19432 -0.194329,-0.19432 H 7.1676685 c 0.027537,-0.5213 0.1652841,-1.01384 0.3902663,-1.45478 l 0.3877784,0.22389 c 0.030603,0.0176 0.064027,0.026 0.09698,0.026 0.067164,0 0.1324816,-0.0348 0.1684718,-0.0971 0.053657,-0.093 0.021821,-0.21179 -0.071124,-0.26548 l -0.3871034,-0.22347 c 0.2771399,-0.42433 0.6403297,-0.78752 1.0646686,-1.06468 l 0.2234785,0.3871 c 0.035985,0.0623 0.1013063,0.0971 0.168471,0.0971 0.032951,0 0.066381,-0.009 0.096979,-0.026 0.09294,-0.0537 0.1247891,-0.1725 0.071133,-0.26544 l -0.2238938,-0.38779 c 0.4409208,-0.22499 0.9334821,-0.36272 1.4547521,-0.39027 v 0.44819 c 0,0.10731 0.08701,0.19434 0.194331,0.19434 0.107324,0 0.194329,-0.087 0.194329,-0.19434 v -0.44821 c 0.521296,0.0275 1.013832,0.16528 1.454753,0.39026 l -0.223894,0.38779 c -0.05367,0.093 -0.02183,0.21179 0.07113,0.26545 0.0306,0.0176 0.06403,0.026 0.09698,0.026 0.06717,0 0.132483,-0.0348 0.168472,-0.0971 l 0.223479,-0.38711 c 0.424339,0.27719 0.787527,0.64035 1.064668,1.06468 l -0.387105,0.22348 c -0.09294,0.0535 -0.12479,0.17252 -0.07112,0.26545 0.03598,0.0623 0.101305,0.0971 0.168472,0.0971 0.03295,0 0.06638,-0.009 0.09698,-0.026 l 0.387781,-0.2239 c 0.224982,0.44092 0.362696,0.93348 0.390264,1.45478 h -0.448123 c -0.107324,0 -0.19433,0.087 -0.19433,0.19432 0,0.10732 0.08701,0.19433 0.19433,0.19433 h 0.447994 c -0.02715,0.50686 -0.159919,1.00335 -0.389541,1.45504 l -0.388245,-0.22415 c -0.09297,-0.0535 -0.211793,-0.0217 -0.265452,0.0713 -0.05367,0.093 -0.02183,0.21179 0.07112,0.26547 l 0.560993,0.32387 c 0.0306,0.0176 0.064,0.026 0.09698,0.026 0.06711,0 0.132395,-0.0348 0.168417,-0.0971 0.353163,-0.61097 0.539851,-1.30763 0.539851,-2.01464 -2.9e-5,-0.72709 -0.193682,-1.4098 -0.532024,-1.99932 z" style="fill:#d40000;fill-opacity:1;stroke:none;stroke-width:.02591066;stroke-opacity:1"/><path id="path8" d="m 11.464797,264.97678 c -0.09375,-0.0521 -0.211924,-0.0183 -0.264084,0.0752 l -0.300096,0.53813 c -0.03188,-0.006 -0.06455,-0.009 -0.09794,-0.009 -0.321474,0 -0.58299,0.26156 -0.58299,0.58299 0,0.0364 0.0036,0.0719 0.0099,0.10645 l -1.610944,0.9301 c -0.09294,0.0535 -0.1247883,0.17251 -0.071124,0.26545 0.035985,0.0623 0.1013071,0.0971 0.1684701,0.0971 0.032951,0 0.066381,-0.009 0.09698,-0.026 l 1.6112279,-0.93023 c 0.101935,0.0873 0.234102,0.14013 0.378475,0.14013 0.250296,0 0.464189,-0.15859 0.546663,-0.3805 l 0.616025,0.009 c 9.76e-4,3e-5 0.002,3e-5 0.003,3e-5 0.105848,0 0.192491,-0.085 0.194254,-0.19113 0.0041,-0.24537 -0.05882,-0.48766 -0.181843,-0.70075 -0.123027,-0.21302 -0.301444,-0.3886 -0.515958,-0.5078 z m -0.662122,1.38232 c -0.107167,0 -0.194329,-0.0871 -0.194329,-0.19432 0,-0.10717 0.08716,-0.19433 0.194329,-0.19433 0.03374,0 0.0655,0.009 0.09316,0.0239 4.87e-4,3.4e-4 8.95e-4,5.6e-4 0.0015,8.1e-4 0.05951,0.0334 0.09976,0.0969 0.09976,0.16957 0,8.2e-4 -1.06e-4,8.2e-4 -1.27e-4,0.003 -0.0015,0.10631 -0.08805,0.19183 -0.1942,0.19183 z m 0.552338,-0.38044 c -0.02504,-0.074 -0.06449,-0.14155 -0.115119,-0.19892 l 0.196169,-0.35175 c 0.08261,0.0709 0.15308,0.15568 0.20809,0.25096 0.05501,0.0953 0.09316,0.19872 0.113311,0.30573 z" style="fill:#d40000;fill-opacity:1;stroke:none;stroke-width:.02591066;stroke-opacity:1"/><path id="path10" d="m 11.48016,269.80524 h -1.35497 c -0.107324,0 -0.1943315,0.087 -0.1943315,0.19432 0,0.10732 0.087002,0.19433 0.1943315,0.19433 h 1.35497 c 0.107325,0 0.194329,-0.087 0.194329,-0.19433 0,-0.10731 -0.087,-0.19432 -0.194329,-0.19432 z" style="fill:#d40000;fill-opacity:1;stroke:none;stroke-width:.02591066;stroke-opacity:1"/><path id="path12" d="m 11.221054,269.41657 c 0.107323,0 0.194328,-0.087 0.194328,-0.19433 0,-0.10731 -0.08701,-0.19434 -0.194328,-0.19434 h -0.836758 c -0.107324,0 -0.19433,0.087 -0.19433,0.19434 0,0.1073 0.08701,0.19433 0.19433,0.19433 z" style="fill:#d40000;fill-opacity:1;stroke:none;stroke-width:.02591066;stroke-opacity:1"/></g></svg>