<svg xmlns="http://www.w3.org/2000/svg" xmlns:svg="http://www.w3.org/2000/svg" id="svg8" width="58.213" height="58.213" version="1.1" viewBox="0 0 15.402 15.402"><metadata id="metadata5"/><g id="layer1" transform="matrix(0.97429971,0,0,0.97429672,-4.4804176,-249.96576)" style="stroke:#fffefe;stroke-opacity:1"><ellipse id="path815" cx="12.503" cy="264.464" rx="7.497" ry="7.497" style="opacity:1;fill:none;fill-opacity:1;stroke:#e00000;stroke-width:.81468904;stroke-linecap:round;stroke-linejoin:round;stroke-miterlimit:4;stroke-dasharray:none;stroke-dashoffset:0;stroke-opacity:1;paint-order:stroke fill markers"/><path id="path1140" d="m 15.995,260.5876 c -0.05608,0.002 -0.110454,0.0199 -0.156884,0.0514 l -4.276725,2.88926 c -0.03173,0.0214 -0.05906,0.0488 -0.08048,0.0805 l -2.8892547,4.27674 c -0.1840676,0.27223 0.1424421,0.59874 0.4146676,0.41466 l 4.2773071,-2.88925 c 0.03173,-0.0214 0.05906,-0.0488 0.08048,-0.0805 l 2.88867,-4.27676 c 0.137121,-0.20229 -0.01355,-0.47465 -0.257781,-0.466 z m -4.051602,3.40308 0.957641,0.95766 -2.9516586,1.99401 z" style="line-height:normal;text-indent:0;text-align:start;text-decoration:none;text-decoration-line:none;text-decoration-style:solid;text-decoration-color:#000;text-transform:none;isolation:auto;mix-blend-mode:normal;fill:#e00000;stroke-width:.29860717;fill-opacity:1"/><ellipse style="fill:#e00000;fill-opacity:1;stroke:#e00000;stroke-width:.30251804;stroke-opacity:1" id="path838" cx="12.546" cy="257.406" rx=".379" ry=".648"/><ellipse id="ellipse840" cx="12.546" cy="271.436" rx=".379" ry=".648" style="fill:#e00000;fill-opacity:1;stroke:#d40000;stroke-width:.30251804;stroke-opacity:1"/><ellipse style="fill:#e00000;fill-opacity:1;stroke:#e00000;stroke-width:.30251804;stroke-opacity:1" id="ellipse842" cx="264.44" cy="-5.512" rx=".379" ry=".648" transform="rotate(90)"/><ellipse id="ellipse844" cx="264.44" cy="-19.542" rx=".379" ry=".648" transform="rotate(90)" style="fill:#e00000;fill-opacity:1;stroke:#e00000;stroke-width:.30251804;stroke-opacity:1"/></g></svg>