<svg xmlns="http://www.w3.org/2000/svg" xmlns:svg="http://www.w3.org/2000/svg" id="svg8" width="15mm" height="56.693" version="1.1" viewBox="0 0 15 15"><metadata id="metadata5"/><g id="layer1" transform="translate(-4.6977514,-257.26971)"><g id="g3012" transform="matrix(0.20169722,0,0,0.22614538,4.1298622,255.77115)" style="fill:#e00000;fill-opacity:1"><path id="path2989" d="m 17,25 c -3.309,0 -6,2.691 -6,6 v 22 c 0,3.309 2.691,6 6,6 h 28 c 3.309,0 6,-2.691 6,-6 V 31 c 0,-3.309 -2.691,-6 -6,-6 z m 30,28 c 0,1.103 -0.897,2 -2,2 H 17 c -1.103,0 -2,-0.897 -2,-2 v -9 h 9 L 26.051416,39.406989 28,44 h 4.172 L 36.102832,51.313163 39.828,44 H 47 Z m 0,-22 v 9 H 38.172 L 36.154248,45.106874 33.828,40 H 30 L 26.102832,31.961413 22,40 h -7 v -9 c 0,-1.103 0.897,-2 2,-2 h 28 c 1.103,0 2,0.897 2,2 z" style="fill:#e00000;fill-opacity:1"/><path id="path2991" d="m 62,25 c -3.859,0 -7,3.14 -7,7 0,3.86 3.141,7 7,7 3.859,0 7,-3.14 7,-7 0,-3.86 -3.141,-7 -7,-7 z m 0,10 c -1.654,0 -3,-1.346 -3,-3 0,-1.654 1.346,-3 3,-3 1.654,0 3,1.346 3,3 0,1.654 -1.346,3 -3,3 z" style="fill:#e00000;fill-opacity:1"/><path id="path2993" d="m 62,45 c -3.859,0 -7,3.141 -7,7 0,3.859 3.141,7 7,7 3.859,0 7,-3.141 7,-7 0,-3.859 -3.141,-7 -7,-7 z m 0,10 c -1.654,0 -3,-1.346 -3,-3 0,-1.654 1.346,-3 3,-3 1.654,0 3,1.346 3,3 0,1.654 -1.346,3 -3,3 z" style="fill:#e00000;fill-opacity:1"/><path id="path2995" d="m 21,13 c 0,-1.103 0.897,-2 2,-2 h 34 c 1.103,0 2,0.897 2,2 0,1.104 0.896,2 2,2 1.104,0 2,-0.896 2,-2 C 63,9.691 60.309,7 57,7 H 23 c -3.309,0 -6,2.691 -6,6 0,1.104 0.896,2 2,2 1.104,0 2,-0.896 2,-2 z" style="fill:#e00000;fill-opacity:1"/><path id="path2997" d="M 71,17 H 9 c -3.309,0 -6,2.691 -6,6 v 38 c 0,3.309 2.691,6 6,6 h 2 c 0,3.309 2.691,6 6,6 h 4 c 3.309,0 6,-2.691 6,-6 h 26 c 0,3.309 2.691,6 6,6 h 4 c 3.309,0 6,-2.691 6,-6 h 2 c 3.309,0 6,-2.691 6,-6 v -6 c 0,-1.104 -0.896,-2 -2,-2 -1.104,0 -2,0.896 -2,2 v 6 c 0,1.103 -0.897,2 -2,2 H 69 53 27 11 9 C 7.897,63 7,62.103 7,61 V 23 c 0,-1.103 0.897,-2 2,-2 h 62 c 1.103,0 2,0.897 2,2 v 26 c 0,1.104 0.896,2 2,2 1.104,0 2,-0.896 2,-2 V 23 c 0,-3.309 -2.691,-6 -6,-6 z m -6,50 c 0,1.103 -0.897,2 -2,2 h -4 c -1.103,0 -2,-0.897 -2,-2 z m -42,0 c 0,1.103 -0.897,2 -2,2 h -4 c -1.103,0 -2,-0.897 -2,-2 z" style="fill:#e00000;fill-opacity:1"/></g></g></svg>