<svg xmlns="http://www.w3.org/2000/svg" xmlns:svg="http://www.w3.org/2000/svg" id="svg8" width="58.213" height="58.213" version="1.1" viewBox="0 0 15.402 15.402"><metadata id="metadata5"/><g id="layer1" transform="matrix(0.97429971,0,0,0.97429672,-4.4804176,-249.96576)" style="stroke:#fffefe;stroke-opacity:1"><ellipse id="path815" cx="12.503" cy="264.464" rx="7.497" ry="7.497" style="opacity:1;fill:none;fill-opacity:1;stroke:#e00000;stroke-width:.81468904;stroke-linecap:round;stroke-linejoin:round;stroke-miterlimit:4;stroke-dasharray:none;stroke-dashoffset:0;stroke-opacity:1;paint-order:stroke fill markers"/><g id="g816" transform="matrix(0.27263172,0,0,0.27263863,8.1406887,260.1021)" style="fill:#e00000;fill-opacity:1;stroke:none;stroke-width:0;stroke-miterlimit:4;stroke-dasharray:none;stroke-opacity:1"><path id="path814" d="m 31,17 h -4 c -0.553,0 -1,-0.448 -1,-1 0,-0.552 0.447,-1 1,-1 h 4 c 0.553,0 1,0.448 1,1 0,0.552 -0.447,1 -1,1 z M 5,17 H 1 C 0.448,17 0,16.552 0,16 0,15.448 0.448,15 1,15 h 4 c 0.552,0 1,0.448 1,1 0,0.552 -0.448,1 -1,1 z M 25.527,11.5 C 25.181,11.5 24.845,11.321 24.66,11 24.384,10.522 24.548,9.91 25.026,9.634 l 3.464,-2 C 28.967,7.358 29.58,7.521 29.856,8 30.132,8.478 29.968,9.09 29.49,9.366 l -3.464,2 C 25.869,11.457 25.697,11.5 25.527,11.5 Z M 3.011,24.5 C 2.665,24.5 2.329,24.321 2.144,24 1.868,23.521 2.031,22.91 2.51,22.634 l 3.542,-2.046 c 0.478,-0.276 1.089,-0.113 1.366,0.366 0.276,0.479 0.113,1.09 -0.366,1.366 L 3.51,24.366 C 3.353,24.457 3.18,24.5 3.011,24.5 Z m 25.978,0 c -0.17,0 -0.342,-0.043 -0.499,-0.134 l -3.464,-2 C 24.548,22.09 24.384,21.479 24.66,21 c 0.276,-0.479 0.889,-0.644 1.366,-0.366 l 3.464,2 c 0.479,0.276 0.643,0.888 0.366,1.366 -0.185,0.321 -0.521,0.5 -0.867,0.5 z M 6.551,11.545 c -0.169,0 -0.342,-0.043 -0.499,-0.134 L 2.51,9.366 C 2.031,9.09 1.868,8.478 2.144,8 2.42,7.521 3.031,7.357 3.51,7.634 l 3.542,2.045 c 0.479,0.276 0.642,0.888 0.366,1.366 -0.185,0.321 -0.521,0.5 -0.867,0.5 z M 12,32 c -0.13,0 -0.263,-0.025 -0.39,-0.079 -0.447,-0.189 -0.693,-0.673 -0.584,-1.146 L 13.743,19 H 9 C 8.634,19 8.297,18.8 8.122,18.478 7.947,18.157 7.962,17.765 8.161,17.457 l 11,-17 c 0.265,-0.408 0.786,-0.566 1.229,-0.377 0.447,0.189 0.694,0.673 0.585,1.146 L 18.257,13 H 23 c 0.366,0 0.703,0.2 0.879,0.522 0.175,0.322 0.16,0.714 -0.039,1.021 l -11,17 C 12.65,31.836 12.331,32 12,32 Z M 10.838,17 H 15 c 0.305,0 0.593,0.139 0.783,0.378 0.189,0.238 0.26,0.55 0.192,0.847 L 14.256,25.674 21.162,15 H 17 c -0.305,0 -0.593,-0.139 -0.783,-0.377 -0.189,-0.238 -0.26,-0.55 -0.192,-0.848 l 1.719,-7.448 z" style="fill:#e00000;fill-opacity:1;stroke:none;stroke-width:0;stroke-miterlimit:4;stroke-dasharray:none;stroke-opacity:1"/></g></g></svg>