<svg xmlns="http://www.w3.org/2000/svg" xmlns:svg="http://www.w3.org/2000/svg" id="svg8" width="15mm" height="15mm" version="1.1" viewBox="0 0 15 15"><metadata id="metadata5"/><g id="layer1" transform="matrix(0.97429971,0,0,0.97429672,-4.6814725,-250.16681)" style="stroke:#fffefe;stroke-opacity:1"><ellipse id="path815" cx="12.503" cy="264.464" rx="7.497" ry="7.497" style="opacity:1;fill:none;fill-opacity:1;stroke:#fff;stroke-width:.40197626;stroke-linecap:round;stroke-linejoin:round;stroke-miterlimit:4;stroke-dasharray:none;stroke-dashoffset:0;stroke-opacity:1;paint-order:stroke fill markers"/><g id="g3716" transform="matrix(0.01757607,0,0,0.01749536,8.0828501,259.84911)" style="fill:#fff;fill-opacity:1;stroke:none;stroke-width:5.65668058;stroke-miterlimit:4;stroke-dasharray:none;stroke-opacity:1"><path id="path3712" d="m 256,320 c -70.688,0 -128,57.297 -128,128 H 384 C 384,377.297 326.688,320 256,320 Z m 0,64 c -5.891,0 -10.672,4.766 -10.672,10.672 v 32 h -93.875 c 4.109,-20.375 14.094,-39.078 29.125,-54.094 20.141,-20.156 46.938,-31.25 75.422,-31.25 28.484,0 55.281,11.094 75.422,31.25 15.031,15.016 25.016,33.719 29.125,54.094 h -93.875 v -32 C 266.672,388.766 261.891,384 256,384 Z" style="fill:#fff;fill-opacity:1;stroke:none;stroke-width:5.65668058;stroke-miterlimit:4;stroke-dasharray:none;stroke-opacity:1"/></g><path id="path3714" d="m 10.638395,261.35539 -0.04232,-0.0925 c -0.07718,-0.21747 -0.285359,-0.37329 -0.530317,-0.37329 -0.310604,0 -0.5624344,0.25068 -0.5624344,0.55985 0,0.24372 0.156523,0.45091 0.3748529,0.52773 v 1.15183 H 9.6909004 c -0.1032594,0 -0.18731,0.0835 -0.18731,0.18657 v 0.93313 H 8.9406121 c -0.1035405,0 -0.18731,0.0834 -0.18731,0.18672 v 4.10538 c 0,0.10333 0.083787,0.18672 0.18731,0.18672 h 7.1243409 c 0.103541,0 0.18731,-0.0834 0.18731,-0.18672 v -4.10538 c 0,-0.10332 -0.08379,-0.18672 -0.18731,-0.18672 h -0.562434 v -0.93313 c 0,-0.10307 -0.084,-0.18657 -0.187543,-0.18657 h -0.187582 v -1.15167 c 0.218611,-0.0768 0.375125,-0.28417 0.375125,-0.52789 0,-0.30917 -0.251831,-0.55985 -0.562435,-0.55985 -0.244976,0 -0.453101,0.15582 -0.530278,0.37329 l -0.0339,0.0911 c -0.0058,0.0416 -0.01053,0.16987 -1.47e-4,0.19681 l 0.03408,0.0852 c 0.0563,0.1591 0.182898,0.28514 0.342735,0.34132 v 1.15167 h -0.187039 c -0.10354,0 -0.187584,0.0835 -0.187581,0.18657 v 0.93313 h -3.750038 v -0.93313 c 0,-0.10307 -0.08379,-0.18657 -0.18731,-0.18657 h -0.187543 v -1.15156 c 0.159837,-0.0563 0.28643,-0.18233 0.343007,-0.34143 l 0.03901,-0.13449 z m -0.57604,0.0298 c 0.103541,0 0.05167,-0.0863 0.05167,0.0167 0,0.10293 0.05527,0.0982 -0.04828,0.0982 -0.1032591,0 -0.05847,0.0285 -0.05847,-0.0744 0,-0.10292 -0.048188,-0.0405 0.05507,-0.0405 z m 4.877729,0.0361 c 0.103259,0 0.0412,-0.0748 0.0412,0.0281 0,0.10293 0.06884,0.0608 -0.03442,0.0608 -0.103541,0 -0.06522,0.0319 -0.06522,-0.071 0,-0.10292 -0.04511,-0.0179 0.05843,-0.0179 z m -5.0616017,2.08098 h 0.3745807 v 0.74641 H 9.8784823 Z m 4.8743307,0 h 0.374581 v 0.74641 h -0.374581 z m -5.624619,1.11955 h 6.749216 v 3.73255 H 9.128194 Z" style="fill:#fff;fill-opacity:1;stroke:none;stroke-width:.19838737;stroke-miterlimit:4;stroke-dasharray:none;stroke-opacity:1"/><path style="fill:none;stroke:#fff;stroke-width:.41055192;stroke-linecap:round;stroke-linejoin:bevel;stroke-miterlimit:4;stroke-dasharray:none;stroke-opacity:1;paint-order:stroke fill markers" id="path3750" d="m 10.053742,261.44369 c 0,-0.18717 0.972606,-2.41325 2.510724,0 1.380012,2.16519 2.444224,-0.0119 2.375618,-0.0224"/><path style="fill:none;stroke:#fff;stroke-width:.41055191;stroke-linecap:butt;stroke-linejoin:miter;stroke-miterlimit:4;stroke-dasharray:none;stroke-opacity:1" id="path817" d="m 17.63469,256.76655 v 2.30936"/><path id="path819" d="m 4.8049614,269.59632 h 2.309351" style="fill:none;stroke:#fff;stroke-width:.41055191;stroke-linecap:butt;stroke-linejoin:miter;stroke-miterlimit:4;stroke-dasharray:none;stroke-opacity:1"/></g></svg>